<?xml version="1.0" encoding="utf-8"?>
<!-- Generator: Adobe Illustrator 19.2.0, SVG Export Plug-In . SVG Version: 6.00 Build 0)  -->
<svg version="1.1" xmlns="http://www.w3.org/2000/svg" xmlns:xlink="http://www.w3.org/1999/xlink" x="0px" y="0px"
	 viewBox="0 0 505.3 178" style="enable-background:new 0 0 505.3 178;" xml:space="preserve">
<style type="text/css">
	.st0{fill:#FFFFFF;}
	.st1{font-family:'PTSans-Narrow';}
	.st2{font-size:21.7768px;}
	.st3{fill:#FCFCFC;}
	.st4{font-size:44.2437px;}
</style>
<g id="Layer_1">
	<g>
		<path d="M426.8,2.9c-2-0.3-3.9-0.6-5.9-0.9h-13.4c-4.9,0.9-9.9,1.5-14.7,2.7c-17.1,4.3-31.6,13.2-43.3,26.5c-1.3,1.5-2.6,2-4.5,2
			c-101,0-202,0-303.1,0c-20.4,0-36.1,13.3-39.6,33.3c-0.1,0.4-0.3,0.7-0.4,1.1v39.7c1.4,4.4,2.2,9.2,4.4,13.3
			c7.5,14.1,19.5,21.3,35.5,21.3c47,0.1,93.9,0,140.9,0c53.3,0,106.7,0,160,0c2.1,0,3.4,0.7,4.8,2.3c19.6,22.8,44.4,33.6,74.4,31
			c39-3.3,70.1-31.7,77.6-70.1C509,56.7,475.4,9.7,426.8,2.9z M111.9,89.1c-0.5,9.3-7.2,16.4-16.2,17c-4.5,0.3-9,0-13.7,0V69.7
			c5.3,0,10.5-0.6,15.6,0.1C106.7,71.1,112.4,79.2,111.9,89.1z M137.2,106.9c-10.8,0-18.7-8.1-18.6-19.3c0-10.7,8.1-18.7,18.7-18.7
			c10.6,0,18.6,8.3,18.6,19.1C155.8,98.7,147.7,106.9,137.2,106.9z M192.8,106.2c-2,0-4.1,0.1-6.1-0.1c-0.6-0.1-1.3-1-1.7-1.7
			c-4.8-8.5-9.5-17.1-14.2-25.6c-0.1-0.1-0.2-0.2-0.2-0.2V106H165V69.3c2,0,3.9-0.1,5.9,0.1c0.7,0.1,1.4,0.9,1.8,1.5
			c4.7,8.5,9.4,17,14.1,25.4c0.1,0.2,0.3,0.4,0.4,0.6V69.4h5.7V106.2z M227.3,106.1c-0.6-0.1-1.3-0.7-1.6-1.3
			c-1.1-2.5-2.1-5.2-2.9-7.8c-0.5-1.6-1.3-1.9-2.7-1.8c-2.6,0.1-5.3,0.1-7.9,0c-1.5-0.1-2.3,0.4-2.7,1.9c-0.7,2.4-1.8,4.6-2.4,7
			c-0.5,1.9-1.4,2.4-3.2,2.2c-1.2-0.1-2.5,0-4,0c0.7-2,1.3-3.8,1.9-5.6c3.5-9.7,7-19.4,10.4-29.2c0.6-1.7,1.4-2.1,3.1-2.1
			c4.2,0.1,4.2,0,5.6,3.9c3.6,10.1,7.2,20.2,10.9,30.2c0.3,0.8,0.5,1.6,0.9,2.7C230.6,106.2,228.9,106.3,227.3,106.1z M256.2,75.1
			h-8.3V106h-6.1V75.1h-8.7v-5.3h23.1V75.1z M283.6,106h-20.3V69.6h20.2v5.4h-8.2c-1.5,0-3-0.1-4.5,0.1c-0.6,0.1-1.4,0.9-1.5,1.5
			c-0.1,2.7-0.1,5.5-0.1,8.6h14v5.6h-14v9.9h14.2V106z M414.2,152.6c-35.4,0-63.9-28.7-63.8-64.3c0-35.1,28.7-63.6,64-63.6
			c35.7,0,63.9,28.5,63.9,64.6C478.3,124.2,449.5,152.6,414.2,152.6z"/>
		<path class="st0" d="M187.1,69.4c1.9,0,3.7,0,5.7,0c0,12.2,0,24.3,0,36.7c-2,0-4.1,0.1-6.1-0.1c-0.6-0.1-1.3-1-1.7-1.7
			c-4.8-8.5-9.5-17.1-14.2-25.6c-0.1-0.1-0.2-0.2-0.2-0.2c0,9,0,18.2,0,27.5c-1.7,0-3.6,0-5.6,0c0-12.1,0-24.2,0-36.6
			c2,0,3.9-0.1,5.9,0.1c0.7,0.1,1.4,0.9,1.8,1.5c4.7,8.5,9.4,17,14.1,25.4c0.1,0.2,0.3,0.4,0.4,0.6
			C187.1,87.8,187.1,78.7,187.1,69.4z"/>
		<path class="st0" d="M137.2,68.9c-10.6,0-18.7,8-18.7,18.7c0,11.2,7.8,19.3,18.6,19.3c10.6,0,18.7-8.2,18.7-18.8
			C155.9,77.3,147.8,68.9,137.2,68.9z M136.8,101.3c-7.1-0.2-12.1-5.8-12.1-13.5c0-7.7,5.3-13.4,12.5-13.3c7.3,0.1,12.6,6,12.4,14
			C149.5,95.9,143.9,101.5,136.8,101.3z"/>
		<path class="st0" d="M97.5,69.9c-5-0.7-10.3-0.1-15.6-0.1v36.4c4.7,0,9.2,0.2,13.7,0c9.1-0.6,15.8-7.7,16.2-17
			C112.4,79.2,106.7,71.1,97.5,69.9z M97.3,100.1c-2.9,0.7-6.1,0.4-9.5,0.6v-7.5c0-5.4,0-10.8,0-16.2c0-1.5,0.4-2.2,2-2.1
			c1.8,0.1,3.5,0,5.3,0.2c5.9,0.5,10.1,5.1,10.7,11.5C106.3,93.2,102.9,98.8,97.3,100.1z"/>
		<path class="st0" d="M231.6,103.4c-3.6-10.1-7.3-20.1-10.9-30.2c-1.4-3.9-1.4-3.8-5.6-3.9c-1.7,0-2.5,0.4-3.1,2.1
			c-3.4,9.8-6.9,19.4-10.4,29.2c-0.6,1.8-1.2,3.6-1.9,5.6c1.5,0,2.8-0.1,4,0c1.8,0.2,2.7-0.4,3.2-2.2c0.6-2.4,1.7-4.6,2.4-7
			c0.4-1.5,1.2-1.9,2.7-1.9c2.6,0.1,5.2,0.1,7.9,0c1.5-0.1,2.3,0.3,2.7,1.8c0.8,2.6,1.8,5.3,2.9,7.8c0.2,0.6,1,1.3,1.6,1.3
			c1.6,0.2,3.3,0.1,5.2,0.1C232.1,105.1,231.9,104.2,231.6,103.4z M212.1,89.7c1.3-4.4,2.5-8.6,3.9-13.2c1.4,4.6,2.7,8.8,4.1,13.2
			H212.1z"/>
		<path class="st0" d="M263.4,69.5c6.8,0,13.4,0,20.2,0c0,1.7,0,3.3,0,5.4c-2.7,0-5.5,0-8.2,0c-1.5,0-3-0.1-4.5,0.1
			c-0.6,0.1-1.4,0.9-1.5,1.5c-0.1,2.8-0.1,5.5-0.1,8.6c4.8,0,9.3,0,14,0c0,1.9,0,3.6,0,5.6c-4.6,0-9.2,0-14,0c0,3.4,0,6.5,0,9.9
			c4.6,0,9.4,0,14.2,0c0,2,0,3.6,0,5.5c-6.7,0-13.4,0-20.3,0C263.4,93.9,263.4,81.8,263.4,69.5z"/>
		<path class="st0" d="M241.8,75.1c-3.2,0-5.8,0-8.7,0c0-1.8,0-3.4,0-5.3c7.7,0,15.3,0,23.1,0c0,1.7,0,3.4,0,5.3c-2.7,0-5.4,0-8.3,0
			c0,10.4,0,20.6,0,30.9c-2.1,0-3.9,0-6.1,0C241.8,95.8,241.8,85.6,241.8,75.1z"/>
		<path d="M415.2,30.5c-32.8-0.1-59.1,25.8-59.1,58c0,32.2,26.1,58.4,58.2,58.4c31.9,0,58.2-26,58.3-57.6
			C472.6,56.9,447,30.5,415.2,30.5z M407.7,117.6h-18.2V85.7h18.2V117.6z M418.5,117.5h-8.1V85.7h8.1V117.5z M439,117.6h-18V85.7h18
			V117.6z M442.9,82.9h-21.8V71.4c3.6-1.2,6.3-3.6,7.5-7.3c0.4-1.3,0.3-3.4-0.5-4.3c-0.7-0.8-2.8-1-4.1-0.6c-3.8,1.1-6.5,3.6-8,7.3
			c-1.2,2.9-0.4,4.3,2.5,5c0,0.5,0.1,1.1,0.1,1.6c0,3.2,0,6.3,0,9.9c-2.5,0-5,0.1-7.4-0.1c-0.4,0-1-0.9-1-1.5c-0.1-3.3,0-6.6,0-9.9
			c3.4-1,4.1-2.4,2.6-5.6c-1.6-3.3-4.1-5.6-7.6-6.8c-1.7-0.5-3.6-0.9-4.5,0.8c-0.7,1.2-0.6,3.1-0.2,4.4c1,3,3.2,5.1,6,6.4
			c1.2,0.5,1.5,1.1,1.5,2.3c-0.1,2.7,0.1,5.4-0.1,8.1c0,0.6-0.8,1.7-1.2,1.7c-6.9,0.1-13.8,0.1-20.8,0.1V71.2h17.5
			c-0.9-0.9-1.5-1.4-1.9-2.1c-1-1.6-2.2-3.1-2.8-4.9c-1.6-4.7,1.4-7.9,6.3-6.8c3.7,0.8,6.4,3.1,8.5,6.2c0.4,0.6,0.8,1.2,1.2,1.9
			c2-3.7,4.6-6.4,8.5-7.7c2.4-0.8,4.8-1.1,6.6,1.1c1.8,2,1.4,4.4,0.4,6.5c-1,2-2.5,3.8-3.9,5.9h16.8V82.9z"/>
		<path d="M124.7,87.9c0-7.7,5.3-13.4,12.5-13.3c7.3,0,12.6,5.9,12.4,14c-0.1,7.4-5.7,13-12.8,12.8
			C129.8,101.2,124.7,95.5,124.7,87.9z"/>
		<path d="M87.8,100.8c0-2.8,0-5.2,0-7.6c0-5.4,0-10.8,0-16.2c0-1.5,0.4-2.2,2-2.1c1.7,0.1,3.5,0,5.2,0.2
			c5.9,0.5,10.1,5.1,10.7,11.5c0.6,6.5-2.8,12.2-8.4,13.5C94.3,100.8,91.2,100.6,87.8,100.8z"/>
		<path d="M220.1,89.7c-2.9,0-5.3,0-8,0c1.3-4.4,2.5-8.6,3.9-13.3C217.5,81.1,218.7,85.2,220.1,89.7z"/>
		<path class="st0" d="M385.8,83c0-4.2,0-7.9,0-11.8c5.7,0,11.3,0,17.5,0c-0.9-0.9-1.4-1.4-1.8-2.1c-1-1.6-2.3-3.1-2.8-4.9
			c-1.6-4.7,1.4-7.9,6.3-6.8c3.7,0.8,6.4,3.1,8.5,6.2c0.4,0.6,0.7,1.2,1.2,1.8c1.9-3.7,4.6-6.4,8.5-7.7c2.4-0.8,4.8-1,6.6,1.1
			c1.8,2,1.4,4.4,0.4,6.5c-1,2-2.5,3.8-3.9,5.9c5.6,0,11.1,0,16.8,0c0,4,0,7.8,0,11.8c-7.2,0-14.4,0-21.8,0c0-3.8,0-7.6,0-11.5
			c3.6-1.2,6.3-3.6,7.5-7.3c0.4-1.3,0.3-3.4-0.5-4.3c-0.7-0.8-2.8-1-4.1-0.6c-3.8,1.1-6.5,3.6-8,7.3c-1.2,2.9-0.4,4.3,2.5,5
			c0,0.5,0.1,1.1,0.1,1.6c0,3.2,0,6.4,0,9.9c-2.5,0-5,0.1-7.4-0.1c-0.4,0-1-0.9-1-1.4c-0.1-3.3,0-6.7,0-9.9c3.4-0.9,4.1-2.4,2.6-5.5
			c-1.6-3.3-4.1-5.6-7.6-6.8c-1.7-0.6-3.6-0.9-4.5,0.7c-0.7,1.2-0.6,3.1-0.2,4.4c1,3,3.2,5.2,6,6.4c1.2,0.5,1.5,1.1,1.5,2.3
			c-0.1,2.7,0.1,5.4-0.1,8.1c0,0.6-0.8,1.7-1.2,1.7C399.7,83.1,392.8,83,385.8,83z"/>
		<path class="st0" d="M407.7,117.6c-6.1,0-12,0-18.1,0c0-10.6,0-21.1,0-31.8c6,0,12,0,18.1,0C407.7,96.2,407.7,106.8,407.7,117.6z"
			/>
		<path class="st0" d="M439,117.5c-6.1,0-12,0-18,0c0-10.6,0-21.2,0-31.8c6,0,11.9,0,18,0C439,96.3,439,106.8,439,117.5z"/>
		<path class="st0" d="M410.3,85.7c2.8,0,5.4,0,8.1,0c0,10.6,0,21.1,0,31.8c-2.7,0-5.3,0-8.1,0C410.3,107,410.3,96.4,410.3,85.7z"/>
	</g>
	<rect x="64.9" y="57.1" width="233.6" height="60.5"/>
</g>
<g id="Layer_2">
	<text transform="matrix(1 0 0 1 24.9619 72.2627)" class="st0 st1 st2">This page is powered by pure Enthusiasm</text>
	<text transform="matrix(1 0 0 1 122.8711 120.1641)" class="st3 st1 st4">DONATE</text>
</g>
</svg>
